<?xml version="1.0" encoding="UTF-8"?>
<svg version="1.1" xmlns="http://www.w3.org/2000/svg" width="409" height="406">
<path d="M0 0 C2.66536775 0.26411056 3.73991378 0.70174213 5.51708984 2.73974609 C6.23179443 3.87017334 6.23179443 3.87017334 6.9609375 5.0234375 C7.5077417 5.870271 8.0545459 6.71710449 8.61791992 7.58959961 C9.19775635 8.50878174 9.77759277 9.42796387 10.375 10.375 C20.42244443 25.87181606 31.43316696 40.60817273 43 55 C43.74507812 55.928125 44.49015625 56.85625 45.2578125 57.8125 C53.95313405 68.53361331 62.94344692 78.99406779 72.33203125 89.11328125 C74.01121877 90.93014739 75.67732133 92.7592829 77.32421875 94.60546875 C83.87226172 101.9127051 90.76005352 108.86851795 97.6875 115.8125 C98.18495728 116.31254547 98.68241455 116.81259094 99.19494629 117.32778931 C104.40279691 122.55698358 109.64639805 127.69688926 115.25463867 132.49975586 C117.84033351 134.72231773 120.31755519 137.05103742 122.8125 139.375 C127.38297905 143.59274087 132.0693887 147.6095264 136.91796875 151.5078125 C139.23164118 153.37869084 141.52186579 155.26731879 143.80078125 157.1796875 C160.56364641 171.21126758 178.23278188 184.68952417 196.7265625 196.3828125 C197.82742188 197.08148438 198.92828125 197.78015625 200.0625 198.5 C201.02285156 199.0878125 201.98320312 199.675625 202.97265625 200.28125 C203.64167969 200.8484375 204.31070312 201.415625 205 202 C205 203.32 205 204.64 205 206 C202.97265625 207.71875 202.97265625 207.71875 200.0625 209.5 C198.40734375 210.551875 198.40734375 210.551875 196.71875 211.625 C195.81382812 212.19734375 195.81382812 212.19734375 194.890625 212.78125 C166.79856466 230.89018146 140.37206603 252.61200955 115.88671875 275.33203125 C114.06985261 277.01121877 112.2407171 278.67732133 110.39453125 280.32421875 C103.0872949 286.87226172 96.13148205 293.76005352 89.1875 300.6875 C88.43743179 301.43368591 88.43743179 301.43368591 87.67221069 302.19494629 C82.44301642 307.40279691 77.30311074 312.64639805 72.50024414 318.25463867 C70.27768227 320.84033351 67.94896258 323.31755519 65.625 325.8125 C61.40725913 330.38297905 57.3904736 335.0693887 53.4921875 339.91796875 C51.62130916 342.23164118 49.73268121 344.52186579 47.8203125 346.80078125 C36.7149449 360.06783874 26.54493873 373.93857888 16.5625 388.0625 C16.0665332 388.76173584 15.57056641 389.46097168 15.05957031 390.18139648 C12.94224682 393.18021939 10.88289721 396.18386232 8.91015625 399.28125 C8.32105469 400.1990625 7.73195312 401.116875 7.125 402.0625 C6.65320313 402.83722656 6.18140625 403.61195313 5.6953125 404.41015625 C4 406 4 406 1.15234375 406.73828125 C-3.0370866 405.75711355 -3.89864955 404.0476143 -6.13305664 400.51464844 C-6.60477295 399.72606445 -7.07648926 398.93748047 -7.5625 398.125 C-8.61138145 396.46411945 -9.66356766 394.80532214 -10.71875 393.1484375 C-11.25757813 392.2934668 -11.79640625 391.43849609 -12.3515625 390.55761719 C-14.95224871 386.52254776 -17.74015679 382.63203497 -20.5625 378.75 C-21.37521362 377.63057007 -21.37521362 377.63057007 -22.2043457 376.48852539 C-27.29716742 369.52112972 -32.58337414 362.71780281 -38 356 C-38.75796875 355.05898438 -39.5159375 354.11796875 -40.296875 353.1484375 C-48.28129374 343.32363856 -56.42715499 333.64037939 -64.9453125 324.2734375 C-66.86936138 322.14454691 -68.75145812 319.98580858 -70.625 317.8125 C-73.37530291 314.65028537 -76.2771017 311.70125408 -79.265625 308.765625 C-81.01202419 306.98775916 -82.63219239 305.14514605 -84.25 303.25 C-90.664765 295.82617085 -97.71346695 288.9763087 -105.171875 282.609375 C-107.02937988 280.97413566 -108.76606009 279.26518207 -110.5 277.5 C-113.39616027 274.56505187 -116.3992918 271.82271401 -119.5234375 269.1328125 C-121.47642465 267.45090243 -123.41668465 265.75725094 -125.3515625 264.0546875 C-133.07907752 257.27410684 -140.94908635 250.75746743 -149.08984375 244.48046875 C-151.1630194 242.87365163 -153.22272434 241.25053809 -155.28125 239.625 C-165.29383273 231.73860778 -175.50839136 224.23501332 -186 217 C-186.75780762 216.47647949 -187.51561523 215.95295898 -188.29638672 215.41357422 C-192.85693692 212.26496499 -197.42519699 209.12785993 -202 206 C-201.91796875 203.79296875 -201.91796875 203.79296875 -201 201 C-198.78412419 199.21590513 -196.72392532 197.77719558 -194.3125 196.3125 C-192.9245533 195.42770456 -191.53785975 194.54094065 -190.15234375 193.65234375 C-189.10022705 192.98501221 -189.10022705 192.98501221 -188.02685547 192.30419922 C-171.23447824 181.49898612 -155.25517495 168.85759737 -140 156 C-138.93627251 155.11058786 -137.8724657 154.22127059 -136.80859375 153.33203125 C-130.07949671 147.68937752 -123.49801531 141.90826145 -117 136 C-116.26007813 135.34128906 -115.52015625 134.68257812 -114.7578125 134.00390625 C-109.21517756 129.0677886 -103.78446092 124.01886624 -98.375 118.9375 C-97.67044678 118.2767749 -96.96589355 117.6160498 -96.23999023 116.93530273 C-89.43098397 110.52051464 -82.81525363 104.02998891 -76.71484375 96.93359375 C-75.03995701 95.04505403 -73.30052413 93.26844352 -71.5 91.5 C-67.78786641 87.83703374 -64.39319118 83.95765399 -61 80 C-60.09284461 78.9566862 -59.18525919 77.91374621 -58.27734375 76.87109375 C-52.241302 69.91473643 -46.42290034 62.83084631 -40.77734375 55.5546875 C-38.90163869 53.14030818 -36.99775863 50.752906 -35.06640625 48.3828125 C-24.27919039 35.13427335 -14.69690993 21.10351363 -5.09985352 6.97949219 C-4.57834717 6.21282227 -4.05684082 5.44615234 -3.51953125 4.65625 C-2.82500854 3.63241211 -2.82500854 3.63241211 -2.11645508 2.58789062 C-1 1 -1 1 0 0 Z " fill="#512BD4" transform="translate(204,0)"/>
</svg>
